<?xml version="1.0" standalone="no"?>
<!DOCTYPE svg PUBLIC "-//W3C//DTD SVG 20010904//EN"
 "http://www.w3.org/TR/2001/REC-SVG-20010904/DTD/svg10.dtd">
<svg version="1.0" xmlns="http://www.w3.org/2000/svg"
 width="16.000000pt" height="16.000000pt" viewBox="0 0 16.000000 16.000000"
 preserveAspectRatio="xMidYMid meet">

<g transform="translate(0.000000,16.000000) scale(0.100000,-0.100000)"
fill="#000000" stroke="none">
<path d="M62 138 c-7 -7 -12 -19 -11 -27 0 -10 2 -11 5 -4 4 8 13 9 29 3 30
-11 43 15 15 30 -23 13 -23 13 -38 -2z"/>
<path d="M27 53 c-13 -12 -7 -32 13 -43 18 -10 20 -8 20 20 0 28 -17 40 -33
23z"/>
<path d="M100 30 c0 -28 2 -30 21 -20 24 13 22 43 -4 48 -13 3 -17 -3 -17 -28z"/>
</g>
</svg>
